<mxfile host="app.diagrams.net" modified="2021-05-05T17:38:16.664Z" agent="5.0 (Windows NT 10.0; Win64; x64) AppleWebKit/537.36 (KHTML, like Gecko) Chrome/88.0.4324.182 Safari/537.36" etag="vmJcRWFnm2gxtjFI8rRf" version="14.6.10" type="github">
  <diagram id="prtHgNgQTEPvFCAcTncT" name="Page-1">
    <mxGraphModel dx="1422" dy="762" grid="1" gridSize="10" guides="1" tooltips="1" connect="1" arrows="1" fold="1" page="1" pageScale="1" pageWidth="827" pageHeight="1169" math="0" shadow="0">
      <root>
        <mxCell id="0" />
        <mxCell id="1" parent="0" />
        <mxCell id="QvAJewZFKXodf1S3QIHt-1" style="edgeStyle=orthogonalEdgeStyle;rounded=0;orthogonalLoop=1;jettySize=auto;html=1;exitX=0.5;exitY=1;exitDx=0;exitDy=0;entryX=0.5;entryY=0;entryDx=0;entryDy=0;endArrow=none;endFill=0;" edge="1" parent="1" source="QvAJewZFKXodf1S3QIHt-4" target="QvAJewZFKXodf1S3QIHt-28">
          <mxGeometry relative="1" as="geometry" />
        </mxCell>
        <mxCell id="QvAJewZFKXodf1S3QIHt-2" style="edgeStyle=orthogonalEdgeStyle;rounded=0;orthogonalLoop=1;jettySize=auto;html=1;exitX=0.5;exitY=1;exitDx=0;exitDy=0;endArrow=none;endFill=0;" edge="1" parent="1" source="QvAJewZFKXodf1S3QIHt-4" target="QvAJewZFKXodf1S3QIHt-18">
          <mxGeometry relative="1" as="geometry" />
        </mxCell>
        <mxCell id="QvAJewZFKXodf1S3QIHt-3" style="edgeStyle=orthogonalEdgeStyle;rounded=0;orthogonalLoop=1;jettySize=auto;html=1;exitX=0.5;exitY=1;exitDx=0;exitDy=0;entryX=0.5;entryY=0;entryDx=0;entryDy=0;endArrow=none;endFill=0;" edge="1" parent="1" source="QvAJewZFKXodf1S3QIHt-4" target="QvAJewZFKXodf1S3QIHt-8">
          <mxGeometry relative="1" as="geometry" />
        </mxCell>
        <mxCell id="QvAJewZFKXodf1S3QIHt-4" value="面向算法金融产品研发过程的CI/CD自动化系统" style="rounded=0;whiteSpace=wrap;html=1;" vertex="1" parent="1">
          <mxGeometry x="188" y="200" width="460" height="40" as="geometry" />
        </mxCell>
        <mxCell id="QvAJewZFKXodf1S3QIHt-5" style="edgeStyle=orthogonalEdgeStyle;rounded=0;orthogonalLoop=1;jettySize=auto;html=1;exitX=0.5;exitY=1;exitDx=0;exitDy=0;entryX=0.5;entryY=0;entryDx=0;entryDy=0;endArrow=none;endFill=0;" edge="1" parent="1" source="QvAJewZFKXodf1S3QIHt-8" target="QvAJewZFKXodf1S3QIHt-9">
          <mxGeometry relative="1" as="geometry" />
        </mxCell>
        <mxCell id="QvAJewZFKXodf1S3QIHt-6" style="edgeStyle=orthogonalEdgeStyle;rounded=0;orthogonalLoop=1;jettySize=auto;html=1;exitX=0.5;exitY=1;exitDx=0;exitDy=0;entryX=0.5;entryY=0;entryDx=0;entryDy=0;endArrow=none;endFill=0;" edge="1" parent="1" source="QvAJewZFKXodf1S3QIHt-8" target="QvAJewZFKXodf1S3QIHt-10">
          <mxGeometry relative="1" as="geometry" />
        </mxCell>
        <mxCell id="QvAJewZFKXodf1S3QIHt-7" style="edgeStyle=orthogonalEdgeStyle;rounded=0;orthogonalLoop=1;jettySize=auto;html=1;exitX=0.5;exitY=1;exitDx=0;exitDy=0;entryX=0.5;entryY=0;entryDx=0;entryDy=0;endArrow=none;endFill=0;" edge="1" parent="1" source="QvAJewZFKXodf1S3QIHt-8" target="QvAJewZFKXodf1S3QIHt-11">
          <mxGeometry relative="1" as="geometry" />
        </mxCell>
        <mxCell id="QvAJewZFKXodf1S3QIHt-8" value="个人中心" style="rounded=0;whiteSpace=wrap;html=1;" vertex="1" parent="1">
          <mxGeometry x="638" y="290" width="100" height="30" as="geometry" />
        </mxCell>
        <mxCell id="QvAJewZFKXodf1S3QIHt-9" value="登录" style="rounded=0;whiteSpace=wrap;html=1;" vertex="1" parent="1">
          <mxGeometry x="638" y="358" width="20" height="111" as="geometry" />
        </mxCell>
        <mxCell id="QvAJewZFKXodf1S3QIHt-10" value="注册&lt;br&gt;/&lt;br&gt;加组申请" style="rounded=0;whiteSpace=wrap;html=1;" vertex="1" parent="1">
          <mxGeometry x="678" y="358" width="20" height="111" as="geometry" />
        </mxCell>
        <mxCell id="QvAJewZFKXodf1S3QIHt-11" value="个人信息查看" style="rounded=0;whiteSpace=wrap;html=1;" vertex="1" parent="1">
          <mxGeometry x="718" y="358" width="20" height="111" as="geometry" />
        </mxCell>
        <mxCell id="QvAJewZFKXodf1S3QIHt-12" style="edgeStyle=orthogonalEdgeStyle;rounded=0;orthogonalLoop=1;jettySize=auto;html=1;exitX=0.5;exitY=1;exitDx=0;exitDy=0;entryX=0.5;entryY=0;entryDx=0;entryDy=0;endArrow=none;endFill=0;" edge="1" parent="1" source="QvAJewZFKXodf1S3QIHt-18" target="QvAJewZFKXodf1S3QIHt-19">
          <mxGeometry relative="1" as="geometry" />
        </mxCell>
        <mxCell id="QvAJewZFKXodf1S3QIHt-13" style="edgeStyle=orthogonalEdgeStyle;rounded=0;orthogonalLoop=1;jettySize=auto;html=1;exitX=0.5;exitY=1;exitDx=0;exitDy=0;entryX=0.5;entryY=0;entryDx=0;entryDy=0;endArrow=none;endFill=0;" edge="1" parent="1" source="QvAJewZFKXodf1S3QIHt-18" target="QvAJewZFKXodf1S3QIHt-22">
          <mxGeometry relative="1" as="geometry" />
        </mxCell>
        <mxCell id="QvAJewZFKXodf1S3QIHt-14" style="edgeStyle=orthogonalEdgeStyle;rounded=0;orthogonalLoop=1;jettySize=auto;html=1;exitX=0.5;exitY=1;exitDx=0;exitDy=0;entryX=0.5;entryY=0;entryDx=0;entryDy=0;endArrow=none;endFill=0;" edge="1" parent="1" source="QvAJewZFKXodf1S3QIHt-18" target="QvAJewZFKXodf1S3QIHt-20">
          <mxGeometry relative="1" as="geometry" />
        </mxCell>
        <mxCell id="QvAJewZFKXodf1S3QIHt-15" style="edgeStyle=orthogonalEdgeStyle;rounded=0;orthogonalLoop=1;jettySize=auto;html=1;exitX=0.5;exitY=1;exitDx=0;exitDy=0;entryX=0.5;entryY=0;entryDx=0;entryDy=0;endArrow=none;endFill=0;" edge="1" parent="1" source="QvAJewZFKXodf1S3QIHt-18" target="QvAJewZFKXodf1S3QIHt-21">
          <mxGeometry relative="1" as="geometry" />
        </mxCell>
        <mxCell id="QvAJewZFKXodf1S3QIHt-16" style="edgeStyle=orthogonalEdgeStyle;rounded=0;orthogonalLoop=1;jettySize=auto;html=1;exitX=0.5;exitY=1;exitDx=0;exitDy=0;entryX=0.5;entryY=0;entryDx=0;entryDy=0;endArrow=none;endFill=0;" edge="1" parent="1" source="QvAJewZFKXodf1S3QIHt-18" target="QvAJewZFKXodf1S3QIHt-23">
          <mxGeometry relative="1" as="geometry" />
        </mxCell>
        <mxCell id="QvAJewZFKXodf1S3QIHt-17" style="edgeStyle=orthogonalEdgeStyle;rounded=0;orthogonalLoop=1;jettySize=auto;html=1;exitX=0.5;exitY=1;exitDx=0;exitDy=0;entryX=0.5;entryY=0;entryDx=0;entryDy=0;endArrow=none;endFill=0;" edge="1" parent="1" source="QvAJewZFKXodf1S3QIHt-18" target="QvAJewZFKXodf1S3QIHt-24">
          <mxGeometry relative="1" as="geometry" />
        </mxCell>
        <mxCell id="QvAJewZFKXodf1S3QIHt-18" value="CI/CD任务管理" style="rounded=0;whiteSpace=wrap;html=1;" vertex="1" parent="1">
          <mxGeometry x="268" y="290" width="300" height="30" as="geometry" />
        </mxCell>
        <mxCell id="QvAJewZFKXodf1S3QIHt-19" value="管道&lt;br&gt;集成任务构建" style="rounded=0;whiteSpace=wrap;html=1;" vertex="1" parent="1">
          <mxGeometry x="309.5" y="359" width="20" height="161" as="geometry" />
        </mxCell>
        <mxCell id="QvAJewZFKXodf1S3QIHt-20" value="管道交付任务申请" style="rounded=0;whiteSpace=wrap;html=1;" vertex="1" parent="1">
          <mxGeometry x="386.37" y="359" width="20" height="161" as="geometry" />
        </mxCell>
        <mxCell id="QvAJewZFKXodf1S3QIHt-21" value="管道交付任务查看" style="rounded=0;whiteSpace=wrap;html=1;" vertex="1" parent="1">
          <mxGeometry x="426.5" y="360" width="20" height="160" as="geometry" />
        </mxCell>
        <mxCell id="QvAJewZFKXodf1S3QIHt-22" value="管道集成任务查看" style="rounded=0;whiteSpace=wrap;html=1;" vertex="1" parent="1">
          <mxGeometry x="349.5" y="358" width="20" height="162" as="geometry" />
        </mxCell>
        <mxCell id="QvAJewZFKXodf1S3QIHt-23" value="模型交付任务申请" style="rounded=0;whiteSpace=wrap;html=1;" vertex="1" parent="1">
          <mxGeometry x="466.5" y="359" width="20" height="161" as="geometry" />
        </mxCell>
        <mxCell id="QvAJewZFKXodf1S3QIHt-24" value="模型交付任务查看" style="rounded=0;whiteSpace=wrap;html=1;" vertex="1" parent="1">
          <mxGeometry x="506.5" y="358" width="20" height="162" as="geometry" />
        </mxCell>
        <mxCell id="QvAJewZFKXodf1S3QIHt-25" style="edgeStyle=orthogonalEdgeStyle;rounded=0;orthogonalLoop=1;jettySize=auto;html=1;exitX=0.5;exitY=1;exitDx=0;exitDy=0;endArrow=none;endFill=0;" edge="1" parent="1" source="QvAJewZFKXodf1S3QIHt-28" target="QvAJewZFKXodf1S3QIHt-29">
          <mxGeometry relative="1" as="geometry" />
        </mxCell>
        <mxCell id="QvAJewZFKXodf1S3QIHt-26" style="edgeStyle=orthogonalEdgeStyle;rounded=0;orthogonalLoop=1;jettySize=auto;html=1;exitX=0.5;exitY=1;exitDx=0;exitDy=0;entryX=0.5;entryY=0;entryDx=0;entryDy=0;endArrow=none;endFill=0;" edge="1" parent="1" source="QvAJewZFKXodf1S3QIHt-28" target="QvAJewZFKXodf1S3QIHt-30">
          <mxGeometry relative="1" as="geometry" />
        </mxCell>
        <mxCell id="QvAJewZFKXodf1S3QIHt-27" style="edgeStyle=orthogonalEdgeStyle;rounded=0;orthogonalLoop=1;jettySize=auto;html=1;exitX=0.5;exitY=1;exitDx=0;exitDy=0;endArrow=none;endFill=0;entryX=0.5;entryY=0;entryDx=0;entryDy=0;" edge="1" parent="1" source="QvAJewZFKXodf1S3QIHt-28" target="QvAJewZFKXodf1S3QIHt-31">
          <mxGeometry relative="1" as="geometry">
            <mxPoint x="191" y="340" as="targetPoint" />
          </mxGeometry>
        </mxCell>
        <mxCell id="QvAJewZFKXodf1S3QIHt-28" value="系统管理" style="rounded=0;whiteSpace=wrap;html=1;" vertex="1" parent="1">
          <mxGeometry x="100" y="290" width="100" height="30" as="geometry" />
        </mxCell>
        <mxCell id="QvAJewZFKXodf1S3QIHt-29" value="组&lt;br&gt;/&lt;br&gt;用例管理" style="rounded=0;whiteSpace=wrap;html=1;" vertex="1" parent="1">
          <mxGeometry x="100" y="357" width="20" height="111" as="geometry" />
        </mxCell>
        <mxCell id="QvAJewZFKXodf1S3QIHt-30" value="人员管理" style="rounded=0;whiteSpace=wrap;html=1;" vertex="1" parent="1">
          <mxGeometry x="140" y="357" width="20" height="111" as="geometry" />
        </mxCell>
        <mxCell id="QvAJewZFKXodf1S3QIHt-31" value="进度管理" style="rounded=0;whiteSpace=wrap;html=1;" vertex="1" parent="1">
          <mxGeometry x="180" y="357" width="20" height="111" as="geometry" />
        </mxCell>
      </root>
    </mxGraphModel>
  </diagram>
</mxfile>
